<?xml version="1.0" encoding="utf-8"?>
<svg version="1.1" id="Celo_Rings" x="0px" y="0px" style="enable-background:new 0 0 950 950;" width="32px" height="32px" xmlns="http://www.w3.org/2000/svg">
  <style type="text/css">
	.st0{fill:#FBCC5C;}
	.st1{fill:#35D07F;}
	.st2{fill:#5EA33B;}
</style>
  <title>Artboard 1</title>
  <path id="Bottom_Ring" class="st0" d="M 12.632 28.632 C 17.748 28.632 21.895 24.485 21.895 19.368 C 21.895 14.252 17.748 10.105 12.632 10.105 C 7.515 10.105 3.368 14.252 3.368 19.368 C 3.368 24.485 7.515 28.632 12.632 28.632 Z M 12.632 32 C 5.656 32 0 26.344 0 19.368 C 0 12.392 5.656 6.737 12.632 6.737 C 19.608 6.737 25.263 12.392 25.263 19.368 C 25.263 26.344 19.608 32 12.632 32 Z"/>
  <path id="Top_Ring" class="st1" d="M 19.368 21.895 C 24.485 21.895 28.632 17.748 28.632 12.632 C 28.632 7.515 24.485 3.368 19.368 3.368 C 14.252 3.368 10.105 7.515 10.105 12.632 C 10.105 17.748 14.252 21.895 19.368 21.895 Z M 19.368 25.263 C 12.392 25.263 6.737 19.608 6.737 12.632 C 6.737 5.656 12.392 0 19.368 0 C 26.344 0 32 5.656 32 12.632 C 32 19.608 26.344 25.263 19.368 25.263 Z"/>
  <path id="Rings_Overlap" class="st2" d="M 19.786 25.263 C 20.662 24.202 21.288 22.959 21.622 21.622 C 22.956 21.288 24.199 20.662 25.263 19.786 C 25.216 21.332 24.883 22.855 24.28 24.283 C 22.855 24.883 21.332 25.216 19.786 25.263 Z M 10.378 10.378 C 9.044 10.712 7.801 11.338 6.737 12.214 C 6.784 10.668 7.117 9.145 7.72 7.72 C 9.145 7.121 10.671 6.787 12.214 6.737 C 11.338 7.798 10.712 9.041 10.378 10.378 Z"/>
</svg>