<?xml version="1.0" encoding="utf-8"?>
<svg id="Layer_1" data-name="Layer 1" width="32px" height="32px" viewBox="0 0 32 32" xmlns="http://www.w3.org/2000/svg">
  <defs>
    <linearGradient id="linear-gradient" x1="202.93" y1="544.7" x2="203.8" y2="545.57" gradientTransform="matrix(20.407364, 0, 0, -20.401293, -4134.217202, 11136.753906)" gradientUnits="userSpaceOnUse">
      <stop offset="0" stop-color="#00aee9"/>
      <stop offset="1" stop-color="#69fabd"/>
    </linearGradient>
  </defs>
  <title>harmony-one-logo</title>
  <ellipse style="stroke: rgb(0, 0, 0); fill: rgb(255, 255, 255);" cx="16" cy="16" rx="16" ry="16"/>
  <path id="Shape" d="M 21.762 5.288 C 19.335 5.286 17.365 7.254 17.359 9.687 L 17.359 14.565 C 16.905 14.595 16.442 14.615 15.961 14.615 C 15.48 14.615 15.019 14.634 14.562 14.662 L 14.562 9.687 C 14.508 6.289 10.805 4.225 7.897 5.971 C 6.591 6.755 5.782 8.16 5.757 9.687 L 5.757 21.345 C 5.811 24.743 9.514 26.807 12.423 25.061 C 13.729 24.276 14.539 22.872 14.562 21.345 L 14.562 16.468 C 15.016 16.436 15.48 16.417 15.961 16.417 C 16.442 16.417 16.903 16.398 17.359 16.371 L 17.359 21.345 C 17.413 24.743 21.116 26.807 24.024 25.061 C 25.33 24.276 26.14 22.872 26.164 21.345 L 26.164 9.687 C 26.158 7.254 24.188 5.286 21.762 5.288 Z M 10.159 7.09 C 11.591 7.089 12.754 8.251 12.758 9.687 L 12.758 14.852 C 11.47 15.039 10.212 15.396 9.016 15.913 C 8.499 16.141 8.012 16.432 7.565 16.781 L 7.565 9.687 C 7.569 8.253 8.729 7.092 10.159 7.09 Z M 12.758 21.345 C 12.758 23.35 10.592 24.604 8.86 23.601 C 8.056 23.136 7.561 22.276 7.561 21.345 L 7.561 20.176 C 7.561 19.143 8.377 18.164 9.746 17.555 C 10.71 17.138 11.722 16.841 12.758 16.672 L 12.758 21.345 Z M 21.762 23.942 C 20.33 23.942 19.167 22.781 19.163 21.345 L 19.163 16.18 C 20.452 15.993 21.71 15.636 22.905 15.119 C 23.423 14.892 23.91 14.6 24.356 14.251 L 24.356 21.345 C 24.353 22.779 23.192 23.941 21.762 23.942 Z M 22.176 13.47 C 21.212 13.887 20.2 14.184 19.163 14.354 L 19.163 9.687 C 19.163 7.681 21.329 6.429 23.061 7.431 C 23.865 7.897 24.361 8.756 24.361 9.687 L 24.361 10.857 C 24.361 11.885 23.544 12.863 22.176 13.47 Z" style="fill: url(#linear-gradient);"/>
</svg>