<?xml version="1.0" encoding="utf-8"?>
<svg id="Layer_1" data-name="Layer 1" width="32px" height="32px" xmlns="http://www.w3.org/2000/svg">
  <title>tether-usdt-logo</title>
  <path d="M 5.864 0.137 L 0.03 12.393 C -0.016 12.486 0.005 12.599 0.08 12.67 L 15.839 27.771 C 15.932 27.86 16.079 27.86 16.172 27.771 L 31.931 12.671 C 32.007 12.6 32.027 12.487 31.982 12.394 L 26.147 0.137 C 26.108 0.053 26.024 0 25.932 0 L 6.081 0 C 5.988 -0.001 5.903 0.052 5.864 0.137 L 5.864 0.137 Z" style="fill:#50af95;fill-rule:evenodd"/>
  <path d="M 18.03 13.651 C 17.917 13.66 17.333 13.695 16.029 13.695 C 14.992 13.695 14.255 13.664 13.997 13.651 C 9.989 13.475 6.998 12.777 6.998 11.942 C 6.998 11.107 9.989 10.41 13.997 10.231 L 13.997 12.957 C 14.259 12.975 15.01 13.02 16.047 13.02 C 17.291 13.02 17.914 12.968 18.026 12.958 L 18.026 10.233 C 22.026 10.411 25.011 11.109 25.011 11.942 C 25.011 12.776 22.027 13.473 18.026 13.65 L 18.03 13.651 Z M 18.03 9.951 L 18.03 7.512 L 23.612 7.512 L 23.612 3.793 L 8.416 3.793 L 8.416 7.512 L 13.996 7.512 L 13.996 9.95 C 9.46 10.158 6.049 11.057 6.049 12.134 C 6.049 13.21 9.46 14.108 13.996 14.317 L 13.996 22.133 L 18.029 22.133 L 18.029 14.314 C 22.555 14.106 25.96 13.208 25.96 12.133 C 25.96 11.057 22.557 10.159 18.029 9.95 L 18.03 9.951 Z M 18.03 9.951 Z" style="fill:#fff;fill-rule:evenodd"/>
</svg>